<svg width="21" height="16" viewBox="0 0 21 16" fill="none" xmlns="http://www.w3.org/2000/svg">
<path d="M20.3253 1.88731L7.3253 14.8873C7.24984 14.9629 7.16023 15.0228 7.06159 15.0637C6.96296 15.1046 6.85723 15.1256 6.75045 15.1256C6.64368 15.1256 6.53795 15.1046 6.43931 15.0637C6.34068 15.0228 6.25107 14.9629 6.17561 14.8873L0.488108 9.19981C0.33565 9.04735 0.25 8.84057 0.25 8.62496C0.25 8.40936 0.33565 8.20258 0.488108 8.05012C0.640566 7.89766 0.847344 7.81201 1.06295 7.81201C1.27856 7.81201 1.48534 7.89766 1.6378 8.05012L6.75045 13.1638L19.1756 0.737619C19.3281 0.585161 19.5348 0.499512 19.7505 0.499512C19.9661 0.499512 20.1728 0.585161 20.3253 0.737619C20.4778 0.890077 20.5634 1.09686 20.5634 1.31246C20.5634 1.52807 20.4778 1.73485 20.3253 1.88731Z" fill="#1BBE00"/>
</svg>
