<svg width="16" height="16" viewBox="0 0 16 16" fill="none" xmlns="http://www.w3.org/2000/svg">
<path d="M1.35833 7.06454L6.60592 0.727504C6.62057 0.706351 6.6367 0.666119 6.63592 0.612995C6.63546 0.581005 6.62902 0.554445 6.62094 0.534283L0.534616 7.88298C0.519925 7.90075 0.500002 7.94185 0.500002 8C0.500002 8.05807 0.51987 8.09914 0.534556 8.11694C0.534576 8.11697 0.534595 8.11699 0.534615 8.11702L6.62094 15.4657C6.62902 15.4456 6.63546 15.419 6.63592 15.387C6.6367 15.3339 6.62057 15.2936 6.60592 15.2725L1.35833 8.93547L0.680212 8.11657L1.74343 8.11657L15.4658 8.11657C15.4804 8.09858 15.5 8.05768 15.5 8C15.5 7.94232 15.4804 7.90142 15.4658 7.88343L1.74343 7.88343L0.680212 7.88343L1.35833 7.06454Z" fill="#171717" stroke="#171717"/>
</svg>
