<svg width="357" height="64" viewBox="0 0 357 64" fill="none" xmlns="http://www.w3.org/2000/svg">
<g filter="url(#filter0_d_249_5249)">
<rect x="4" y="4" width="349" height="56" rx="16" fill="white" shape-rendering="crispEdges"/>
<path d="M121.901 39.8768L121.288 42.6184H109.734L121.901 39.8768Z" fill="#4E0E00"/>
<path d="M122.61 32.3005L121.087 31.335L122.593 28.1987C122.68 27.9967 122.647 27.7759 122.52 27.6044L112.266 25.1893L58.7712 28.2269C58.7712 28.2269 47.3563 29.7845 37.1511 34.2762C36.3359 34.9011 36.2373 35.4626 36.1081 36.165C36.0658 36.3952 36.0329 36.6302 36 36.8627C36 37.9504 36.0235 39.0405 36.0118 40.1282C35.9906 42.2331 36.8575 42.2425 38.9413 44.4132C39.007 44.4813 39.1175 44.479 39.2067 44.5095L107.448 44.2347L122.61 40.2198L123.5 36.5221L122.61 32.3028V32.3005Z" fill="#D8521F"/>
<path opacity="0.5" d="M36.307 36.5432C36.307 36.5432 36.2929 36.5503 36.2882 36.5526C36.2741 36.5785 36.2506 36.602 36.2224 36.6114C36.1965 36.6208 36.1684 36.6302 36.1402 36.6302C36.0814 36.6302 36.0626 36.5785 36.0697 36.5291C36.0767 36.4728 36.1237 36.4352 36.1731 36.407C36.1402 36.407 36.1073 36.4093 36.072 36.4117C36.0486 36.562 36.025 36.7147 36.0039 36.8651C36.0039 37.9528 36.0274 39.0428 36.0156 40.1305C35.9945 42.2355 36.8614 42.2449 38.9452 44.4156C39.0109 44.4837 39.1214 44.4813 39.2106 44.5119L107.452 44.237L122.614 40.2222L123.499 36.5479H36.3093L36.307 36.5432Z" fill="#A7170D"/>
<path d="M36.3359 41.7609C36.7541 42.5103 37.5928 43.0083 38.9436 44.4132C39.0094 44.4813 39.1198 44.4789 39.2091 44.5095L107.45 44.2346L116.786 41.7609H36.3359Z" fill="#931C17"/>
<g style="mix-blend-mode:screen" opacity="0.5">
<path d="M107.012 44.2535C107.317 43.3326 107.484 42.3483 107.484 41.324C107.484 36.1839 103.319 32.0187 98.1788 32.0187C93.0387 32.0187 88.8711 36.1862 88.8711 41.324C88.8711 42.3483 89.0379 43.3326 89.3433 44.2535H107.012Z" fill="#D8521F"/>
</g>
<path d="M112.684 25.6897C107.203 18.9826 101.398 16.0437 101.398 16.0437C98.668 13.6921 78.0957 12.5645 69.824 15.252C65.1866 16.7579 56.5508 31.3068 56.5508 31.3068L111.413 30.6185C111.413 30.6185 114.958 28.4689 112.686 25.6897H112.684Z" fill="#D8521F"/>
<path d="M105.534 44.2535C105.787 43.4876 105.926 42.6678 105.926 41.815C105.926 37.5347 102.456 34.0648 98.1759 34.0648C93.8956 34.0648 90.4258 37.5347 90.4258 41.815C90.4258 42.6678 90.5644 43.4876 90.8181 44.2535H105.534Z" fill="#380D05"/>
<path d="M104.786 43.227C105.387 39.5233 102.872 36.0334 99.1685 35.4322C95.4648 34.831 91.9749 37.3461 91.3737 41.0499C90.7725 44.7536 93.2876 48.2435 96.9914 48.8447C100.695 49.4459 104.185 46.9308 104.786 43.227Z" fill="#363635"/>
<path d="M104.786 43.227C105.387 39.5233 102.872 36.0334 99.1685 35.4322C95.4648 34.831 91.9749 37.3461 91.3737 41.0499C90.7725 44.7536 93.2876 48.2435 96.9914 48.8447C100.695 49.4459 104.185 46.9308 104.786 43.227Z" fill="#222222"/>
<path d="M102.632 42.8773C103.04 40.3633 101.333 37.9945 98.8188 37.5864C96.3048 37.1784 93.936 38.8856 93.528 41.3995C93.1199 43.9135 94.8271 46.2824 97.3411 46.6904C99.855 47.0985 102.224 45.3913 102.632 42.8773Z" fill="black"/>
<path d="M102.279 42.1368C102.279 44.4603 100.395 46.3467 98.0692 46.3467C95.7435 46.3467 93.8594 44.4626 93.8594 42.1368C93.8594 39.8111 95.7435 37.927 98.0692 37.927C100.395 37.927 102.279 39.8111 102.279 42.1368Z" fill="#D5D3CB"/>
<path d="M95.1345 40.5651C94.8996 41.0044 94.7586 41.5024 94.7422 42.0286H95.5221C95.5386 41.6434 95.6396 41.2792 95.8087 40.955L95.1345 40.5651Z" fill="#4C4C49"/>
<path d="M95.9164 43.5016L95.2422 43.8916C95.5124 44.3262 95.8812 44.6927 96.3134 44.9628L96.7034 44.2863C96.3863 44.0842 96.1185 43.8164 95.9164 43.4993V43.5016Z" fill="#4C4C49"/>
<path d="M96.7034 39.9825L96.3134 39.3082C95.8788 39.5784 95.5124 39.9472 95.2422 40.3795L95.9164 40.7695C96.1185 40.4523 96.3863 40.1845 96.7034 39.9825Z" fill="#4C4C49"/>
<path d="M94.7422 42.2424C94.7586 42.771 94.8996 43.2667 95.1345 43.706L95.8087 43.316C95.6396 42.9918 95.5386 42.6277 95.5221 42.2424H94.7422Z" fill="#4C4C49"/>
<path d="M99.6394 39.2002C99.2 38.9653 98.702 38.8243 98.1758 38.8079V39.5878C98.5611 39.6043 98.9252 39.7053 99.2494 39.8744L99.6394 39.1978V39.2002Z" fill="#4C4C49"/>
<path d="M101.399 42.0286C101.382 41.5001 101.241 41.0044 101.006 40.5651L100.332 40.955C100.501 41.2792 100.602 41.6434 100.619 42.0286H101.399Z" fill="#4C4C49"/>
<path d="M100.224 40.7695L100.899 40.3795C100.629 39.9449 100.26 39.5784 99.8275 39.3082L99.4375 39.9825C99.7546 40.1845 100.022 40.4523 100.224 40.7695Z" fill="#4C4C49"/>
<path d="M97.9636 38.8079C97.435 38.8243 96.9393 38.9629 96.5 39.2002L96.89 39.8768C97.2142 39.7076 97.5783 39.6043 97.9636 39.5902V38.8102V38.8079Z" fill="#4C4C49"/>
<path d="M96.5 45.071C96.9393 45.3082 97.435 45.4468 97.9636 45.4633V44.6833C97.5759 44.6669 97.2118 44.5659 96.89 44.3967L96.5 45.0733V45.071Z" fill="#4C4C49"/>
<path d="M100.332 43.316L101.006 43.706C101.241 43.2667 101.382 42.771 101.399 42.2424H100.619C100.602 42.6301 100.501 42.9942 100.332 43.316Z" fill="#4C4C49"/>
<path d="M99.4375 44.2887L99.8275 44.9653C100.262 44.6951 100.629 44.3263 100.899 43.894L100.224 43.504C100.022 43.8212 99.7546 44.089 99.4375 44.291V44.2887Z" fill="#4C4C49"/>
<path d="M98.1758 45.4633C98.7044 45.4469 99.2 45.3083 99.6394 45.071L99.2494 44.3944C98.9252 44.5636 98.5611 44.6669 98.1758 44.681V45.461V45.4633Z" fill="#4C4C49"/>
<path d="M100.186 42.1368C100.186 43.3044 99.2397 44.2535 98.0698 44.2535C96.8999 44.2535 95.9531 43.3067 95.9531 42.1368C95.9531 40.9669 96.8999 40.0201 98.0698 40.0201C99.2397 40.0201 100.186 40.9669 100.186 42.1368Z" fill="#A8A7A1"/>
<g style="mix-blend-mode:screen" opacity="0.5">
<path d="M62.994 44.4202C63.2994 43.4993 63.4662 42.5149 63.4662 41.4907C63.4662 36.3505 59.2986 32.1853 54.1608 32.1853C49.023 32.1853 44.8555 36.3529 44.8555 41.4907C44.8555 42.5149 45.0223 43.4993 45.3277 44.4202H62.9963H62.994Z" fill="#D8521F"/>
</g>
<path d="M61.5182 44.4204C61.7719 43.6522 61.9105 42.8346 61.9105 41.9818C61.9105 37.7015 58.4406 34.2317 54.1603 34.2317C49.88 34.2317 46.4102 37.7015 46.4102 41.9818C46.4102 42.8346 46.5488 43.6545 46.8025 44.4204H61.5182Z" fill="#380D05"/>
<path d="M60.7658 43.6958C61.6277 40.044 59.366 36.3848 55.7141 35.5229C52.0622 34.6609 48.4031 36.9226 47.5411 40.5745C46.6792 44.2264 48.9409 47.8856 52.5928 48.7475C56.2447 49.6095 59.9039 47.3477 60.7658 43.6958Z" fill="#363635"/>
<path d="M60.7658 43.6958C61.6277 40.044 59.366 36.3848 55.7141 35.5229C52.0622 34.6609 48.4031 36.9226 47.5411 40.5745C46.6792 44.2264 48.9409 47.8856 52.5928 48.7475C56.2447 49.6095 59.9039 47.3477 60.7658 43.6958Z" fill="#222222"/>
<path d="M58.6413 43.1945C59.2263 40.7157 57.6912 38.232 55.2124 37.6469C52.7336 37.0619 50.2498 38.597 49.6648 41.0758C49.0797 43.5546 50.6149 46.0384 53.0937 46.6234C55.5725 47.2085 58.0562 45.6733 58.6413 43.1945Z" fill="black"/>
<path d="M58.3689 42.1368C58.3689 44.4603 56.4848 46.3467 54.1591 46.3467C51.8333 46.3467 49.9492 44.4626 49.9492 42.1368C49.9492 39.8111 51.8333 37.927 54.1591 37.927C56.4848 37.927 58.3689 39.8111 58.3689 42.1368Z" fill="#D5D3CB"/>
<path d="M51.2244 40.5652C50.9894 41.0045 50.8485 41.5025 50.832 42.0288H51.612C51.6284 41.6435 51.7294 41.2794 51.8986 40.9552L51.222 40.5652H51.2244Z" fill="#4C4C49"/>
<path d="M52.0047 43.5017L51.3281 43.8917C51.5983 44.3263 51.9671 44.6928 52.3994 44.963L52.7894 44.2864C52.4722 44.0844 52.2044 43.8165 52.0024 43.4994L52.0047 43.5017Z" fill="#4C4C49"/>
<path d="M52.7933 39.9826L52.4033 39.3083C51.9687 39.5785 51.6022 39.9473 51.332 40.3796L52.0086 40.7696C52.2107 40.4524 52.4785 40.1846 52.7956 39.9826H52.7933Z" fill="#4C4C49"/>
<path d="M50.832 42.2426C50.8485 42.7711 50.9894 43.2668 51.2244 43.7061L51.9009 43.3162C51.7318 42.992 51.6284 42.6278 51.6143 42.2426H50.8344H50.832Z" fill="#4C4C49"/>
<path d="M55.7292 39.2003C55.2899 38.9654 54.7942 38.8244 54.2656 38.808V39.5879C54.6509 39.6044 55.015 39.7054 55.3392 39.8745L55.7292 39.198V39.2003Z" fill="#4C4C49"/>
<path d="M57.4869 42.0288C57.4704 41.5002 57.3295 41.0045 57.0946 40.5652L56.418 40.9552C56.5871 41.2794 56.6881 41.6435 56.7046 42.0288H57.4845H57.4869Z" fill="#4C4C49"/>
<path d="M56.3143 40.7696L56.9886 40.3796C56.7184 39.945 56.3496 39.5785 55.9173 39.3083L55.5273 39.9826C55.8445 40.1846 56.1123 40.4524 56.3143 40.7696Z" fill="#4C4C49"/>
<path d="M54.0534 38.808C53.5249 38.8244 53.0268 38.963 52.5898 39.2003L52.9798 39.8769C53.304 39.7077 53.6682 39.6044 54.0534 39.5903V38.8103V38.808Z" fill="#4C4C49"/>
<path d="M52.5898 45.0711C53.0292 45.3084 53.5249 45.447 54.0534 45.4634V44.6835C53.6658 44.667 53.3017 44.566 52.9798 44.3969L52.5898 45.0734V45.0711Z" fill="#4C4C49"/>
<path d="M56.4219 43.3162L57.0985 43.7061C57.3334 43.2668 57.4743 42.7711 57.4908 42.2426H56.7108C56.6944 42.6302 56.5934 42.9943 56.4242 43.3162H56.4219Z" fill="#4C4C49"/>
<path d="M55.5273 44.2888L55.9173 44.9654C56.3519 44.6952 56.7184 44.3264 56.9886 43.8941L56.3143 43.5042C56.1123 43.8213 55.8445 44.0891 55.5273 44.2911V44.2888Z" fill="#4C4C49"/>
<path d="M54.2656 45.4634C54.7942 45.447 55.2899 45.3084 55.7292 45.0711L55.3392 44.3945C55.015 44.5637 54.6509 44.667 54.2656 44.6811V45.4611V45.4634Z" fill="#4C4C49"/>
<path d="M56.2763 42.1368C56.2763 43.3044 55.3296 44.2535 54.1596 44.2535C52.9897 44.2535 52.043 43.3067 52.043 42.1368C52.043 40.9669 52.9897 40.0201 54.1596 40.0201C55.3296 40.0201 56.2763 40.9669 56.2763 42.1368Z" fill="#A8A7A1"/>
<path d="M36.7052 40.6685C36.7052 40.6685 36.6558 39.4539 36.7052 38.6834C36.7263 38.3733 36.9119 38.2605 37.1257 38.2394C36.8438 38.2159 36.5478 38.2864 36.5219 38.6834C36.4726 39.4539 36.5219 40.6685 36.5219 40.6685C36.5219 40.6685 36.5947 41.4625 37.6425 41.432C37.6543 41.432 37.6684 41.432 37.6825 41.432C36.7733 41.3874 36.7052 40.6709 36.7052 40.6709V40.6685Z" fill="#222222"/>
<path d="M37.6429 38.3663C37.6429 38.3663 37.3915 38.2606 37.126 38.2371C36.9099 38.2582 36.7243 38.371 36.7055 38.6811C36.6562 39.4516 36.7055 40.6662 36.7055 40.6662C36.7055 40.6662 36.7737 41.385 37.6828 41.4273C38.7259 41.3663 40.0767 40.0225 37.6429 38.3639V38.3663Z" fill="#5D0F00"/>
<path d="M84.3751 14.2066C84.3751 14.2066 73.1857 14.4298 71.2476 15.736C71.2476 15.736 69.8309 16.2199 67.4817 19.4995L61.9117 27.6208C61.9117 27.6208 61.033 29.3381 62.7856 29.4885L105.911 26.1337C105.911 26.1337 107.104 26.021 107.029 25.3138C106.954 24.6067 106.655 24.1956 105.575 23.2254C104.494 22.2575 98.231 16.4032 94.9514 15.4541C91.6719 14.505 85.3078 14.1808 84.3728 14.2066H84.3751Z" fill="#222222"/>
<path d="M61.6198 26.2488C64.0607 21.7993 68.1953 16.1635 68.1977 16.1611C64.8547 18.6584 60.4851 25.0789 58.1641 28.7085C58.1641 28.7085 60.1445 28.9387 61.6198 26.2511V26.2488Z" fill="#00384B"/>
<path d="M107.861 24.2215C107.861 24.2215 108.949 26.0797 110.234 25.6193C110.234 25.6193 111.484 25.4642 112.268 25.1894C106.912 18.837 101.398 16.0437 101.398 16.0437C101.187 15.8629 100.87 15.689 100.461 15.5222C100.487 15.6326 100.543 15.7618 100.637 15.9122C101.083 16.6052 101.826 17.6812 107.859 24.2191L107.861 24.2215Z" fill="#00384B"/>
<path d="M105.959 25.8683C105.959 25.8683 106.971 25.53 105.947 24.2309C105.155 23.2231 97.5835 16.5324 94.701 15.8488C93.1082 15.4705 90.5545 14.9279 86.7112 14.7352C86.6853 17.2936 86.582 21.2356 86.2812 27.1933C92.5584 26.7117 99.4347 26.2254 105.959 25.866V25.8683Z" fill="#00384B"/>
<path d="M74.6787 15.2403C74.6787 15.2403 75.9168 15.104 74.0256 15.3201C72.7241 15.4705 71.3498 15.8252 70.0906 16.9552C68.1736 18.6749 62.3052 27.8393 62.3052 27.8393C62.3052 27.8393 61.6545 29.1478 63.5198 29.0632C64.6357 29.0139 72.8886 28.248 83.3709 27.4211C84.0029 22.0954 84.4657 17.7164 84.7758 14.6741C82.006 14.6318 78.6701 14.7728 74.6763 15.2403H74.6787Z" fill="#00384B"/>
<g style="mix-blend-mode:screen">
<g style="mix-blend-mode:screen" opacity="0.5">
<path d="M59.0298 27.4118C59.8708 27.0453 60.7142 26.6929 61.5623 26.3523C61.5811 26.3194 61.5999 26.2841 61.6187 26.2512C64.0595 21.8018 68.1942 16.1659 68.1965 16.1636C65.22 18.3883 61.4284 23.7258 58.9922 27.4306C59.0039 27.4259 59.0157 27.4212 59.0274 27.4141L59.0298 27.4118Z" fill="#00384B"/>
</g>
<g style="mix-blend-mode:screen" opacity="0.5">
<path d="M103.473 19.3962C104.472 19.422 105.468 19.4572 106.464 19.4972C103.544 17.1315 101.394 16.0414 101.394 16.0414C101.183 15.8605 100.866 15.6867 100.457 15.5199C100.483 15.6303 100.539 15.7595 100.633 15.9099C100.934 16.3774 101.371 17.0187 103.473 19.3938V19.3962Z" fill="#00384B"/>
</g>
<g style="mix-blend-mode:screen" opacity="0.5">
<path d="M94.1975 19.4291C96.2554 19.3515 98.3157 19.3257 100.376 19.3421C98.2288 17.6718 95.99 16.1542 94.6979 15.8465C93.1051 15.4682 90.5515 14.9255 86.7081 14.7329C86.694 16.0814 86.6588 17.8151 86.5859 20.0281C89.1114 19.7274 91.6509 19.5254 94.1998 19.4267L94.1975 19.4291Z" fill="#00384B"/>
</g>
<g style="mix-blend-mode:screen" opacity="0.5">
<path d="M66.3841 24.5786C72.1867 22.6545 78.1397 21.2215 84.1772 20.3476C84.4192 18.1416 84.6165 16.2317 84.7763 14.6718C82.0065 14.6295 78.6706 14.7705 74.6769 15.238C74.6769 15.238 75.9149 15.1017 74.0238 15.3178C72.7223 15.4682 71.348 15.8229 70.0888 16.9529C68.8014 18.1087 65.7286 22.6263 63.8516 25.4666C64.6902 25.1565 65.5336 24.8605 66.3841 24.5786Z" fill="#00384B"/>
</g>
</g>
<path d="M62.5001 27.238L60.9496 28.2694C60.9496 28.2694 60.2425 28.7674 60.7593 29.3007C60.7593 29.3007 61.0013 29.5826 61.652 29.5967C62.3027 29.6108 63.6536 29.3007 63.6536 29.3007L62.5024 27.238H62.5001Z" fill="#B71E18"/>
<path d="M66.2061 26.4088C65.7949 25.5254 64.6015 25.5983 64.5992 25.5983C63.7065 25.6499 62.499 26.2138 61.9915 26.9561C61.4066 27.8112 61.4794 29.747 62.5788 29.5849C63.838 29.397 63.3564 29.5356 65.3956 29.0751C65.9265 28.9553 66.7065 27.4847 66.2061 26.4088Z" fill="#E86128"/>
<path opacity="0.5" d="M66.2061 26.4088C65.7949 25.5254 64.6015 25.5983 64.5992 25.5983C63.7065 25.6499 62.499 26.2138 61.9915 26.9561C61.4066 27.8112 61.4794 29.747 62.5788 29.5849C63.838 29.397 63.3564 29.5356 65.3956 29.0751C65.9265 28.9553 66.7065 27.4847 66.2061 26.4088ZM64.7284 28.5395C63.1614 28.8943 63.5303 28.7885 62.5624 28.9318C61.7167 29.0564 61.6626 27.5693 62.1113 26.9091C62.5013 26.3383 63.4293 25.9037 64.1152 25.8637C64.1152 25.8637 65.0361 25.8073 65.3509 26.4886C65.7339 27.3156 65.1348 28.4455 64.726 28.5395H64.7284Z" fill="#B11D17"/>
<path d="M120.932 31.0412C120.932 31.0412 122.396 28.0224 122.353 27.9261C122.311 27.8298 120.645 27.2519 119.626 27.7523C118.597 28.255 114.662 30.7264 115.536 30.8556C116.309 30.9707 120.084 31.1164 120.934 31.0389L120.932 31.0412Z" fill="#D5D3CB"/>
<path d="M116.171 29.9558C115.555 30.4351 115.208 30.811 115.537 30.858C116.31 30.9731 120.085 31.1187 120.935 31.0412C120.935 31.0412 121.088 30.7264 121.292 30.2965L116.171 29.9535V29.9558Z" fill="#E86408"/>
<g style="mix-blend-mode:screen" opacity="0.4">
<path d="M115.536 30.8581C115.883 30.9097 116.842 30.9685 117.869 31.0084C118.094 30.6631 118.327 30.3224 118.571 29.9912C119.187 29.1549 119.849 28.3561 120.509 27.5574C120.197 27.5691 119.889 27.6255 119.626 27.7571C118.597 28.2598 114.662 30.7312 115.536 30.8604V30.8581Z" fill="white"/>
</g>
<g style="mix-blend-mode:screen" opacity="0.8">
<path d="M114.386 30.7758C115.004 30.2073 115.693 29.7116 116.393 29.2535C116.515 29.1736 116.639 29.0938 116.762 29.0139C117.553 28.4501 118.368 27.8909 119.256 27.4986L112.681 25.6897L55.7305 30.7993C62.1298 30.219 99.363 31.4759 114.039 30.7993C114.156 30.7946 114.274 30.7852 114.386 30.7735V30.7758Z" fill="#EA7338"/>
</g>
<path d="M81.1696 28.9387L83.8713 28.7672C83.8713 28.7672 84.4045 28.7484 84.219 29.2206C84.0334 29.6904 83.977 29.7774 83.977 29.7774C83.977 29.7774 83.9276 30.0193 83.4108 30.1321C82.8916 30.2449 79.7695 30.5761 79.7695 30.5761C79.7695 30.5761 79.3302 30.6489 78.6301 30.3459C77.93 30.0428 77.9277 29.4485 78.1508 29.2958C78.1508 29.2958 78.1438 29.2323 78.5855 29.136C79.0271 29.0374 81.1673 28.941 81.1673 28.941L81.1696 28.9387Z" fill="#74160A"/>
<path d="M78.8844 29.2018L83.4302 28.8823C83.4302 28.8823 83.9353 28.8495 84.0222 29.0703C84.1091 29.2911 83.8554 29.5166 83.1647 29.6012C82.474 29.6881 79.8358 29.963 79.8358 29.963C79.8358 29.963 78.8468 30.0758 78.5061 29.8197C78.1632 29.566 78.3135 29.2653 78.8867 29.1995L78.8844 29.2018Z" fill="#D8521F"/>
<path d="M103.515 27.2943L106.207 27.0053C106.207 27.0053 106.738 26.9631 106.574 27.4423C106.409 27.9216 106.358 28.0085 106.358 28.0085C106.358 28.0085 106.32 28.2528 105.808 28.3867C105.296 28.5206 102.19 28.9881 102.19 28.9881C102.19 28.9881 101.755 29.0797 101.041 28.8072C100.327 28.5347 100.301 27.9427 100.517 27.7782C100.517 27.7782 100.506 27.7148 100.945 27.5997C101.384 27.4822 103.515 27.292 103.515 27.292V27.2943Z" fill="#74160A"/>
<path d="M101.243 27.656L105.772 27.1369C105.772 27.1369 106.275 27.0828 106.371 27.299C106.467 27.5151 106.223 27.7524 105.537 27.8675C104.851 27.9849 102.227 28.3749 102.227 28.3749C102.227 28.3749 101.245 28.53 100.893 28.2903C100.54 28.0507 100.676 27.743 101.245 27.656H101.243Z" fill="#D8521F"/>
<path d="M40.6298 33.5833C39.918 33.5457 39.2884 33.5292 38.6306 33.8346C38.0104 34.1259 37.0918 34.4807 36.777 34.8119C36.6666 34.9552 36.575 35.115 36.4975 35.2865C36.3495 35.7939 36.2649 36.3272 36.2461 36.8581C36.2649 37.0202 36.3025 37.1635 36.3541 37.2716C36.5468 37.6639 39.5797 35.3922 40.9869 34.2458C41.1607 34.0484 41.3439 33.6303 40.6274 33.5833H40.6298Z" fill="#D5D3CB"/>
<g style="mix-blend-mode:screen" opacity="0.4">
<path d="M40.4967 33.5786C39.8389 33.5457 39.2445 33.548 38.6267 33.837C38.0065 34.1283 37.0879 34.483 36.7731 34.8143C36.6627 34.9576 36.5711 35.1173 36.4936 35.2888C36.3456 35.7963 36.261 36.3296 36.2422 36.8605C36.2563 36.9826 36.2821 37.0931 36.315 37.187C37.2923 35.559 38.6877 34.1589 40.4967 33.5786Z" fill="white"/>
</g>
<path d="M37.1987 41.9935H44.9442L45.7194 45.9896H39.0429C39.0429 45.9896 38.331 45.9074 38.0773 45.5221C37.9105 45.266 37.1494 44.277 36.7782 43.0248C36.5409 42.2261 37.1987 41.9959 37.1987 41.9959V41.9935Z" fill="#222222"/>
<g style="mix-blend-mode:screen">
<path d="M36.9826 43.5957C38.6247 43.739 44.1595 43.8306 45.2778 43.7061L44.9442 41.9935H37.1987C37.1987 41.9935 36.5409 42.2238 36.7782 43.0225C36.8369 43.2222 36.905 43.4125 36.9802 43.5957H36.9826Z" fill="#222222"/>
</g>
<path d="M161.5 38.25C159.859 38.25 158.56 37.724 157.602 36.6719C156.643 35.6146 156.164 34.1771 156.164 32.3594C156.164 30.5469 156.643 29.1146 157.602 28.0625C158.565 27.0052 159.865 26.4766 161.5 26.4766C162.812 26.4766 163.924 26.8542 164.836 27.6094C165.753 28.3594 166.286 29.3333 166.438 30.5312H164.117C163.966 29.9115 163.654 29.4167 163.18 29.0469C162.706 28.6719 162.146 28.4844 161.5 28.4844C160.609 28.4844 159.898 28.8333 159.367 29.5312C158.836 30.2292 158.57 31.1693 158.57 32.3516C158.57 33.5547 158.833 34.5052 159.359 35.2031C159.885 35.8958 160.602 36.2422 161.508 36.2422C162.164 36.2422 162.721 36.0729 163.18 35.7344C163.643 35.3906 163.958 34.9167 164.125 34.3125H166.445C166.263 35.5208 165.727 36.4792 164.836 37.1875C163.951 37.8958 162.839 38.25 161.5 38.25ZM171.102 36.4844C171.607 36.4844 172.034 36.3385 172.383 36.0469C172.737 35.75 172.914 35.3776 172.914 34.9297V34.3203L171.148 34.4297C170.721 34.4609 170.391 34.5677 170.156 34.75C169.927 34.9323 169.812 35.1719 169.812 35.4688C169.812 35.7812 169.93 36.0286 170.164 36.2109C170.398 36.3932 170.711 36.4844 171.102 36.4844ZM170.352 38.1328C169.544 38.1328 168.875 37.8958 168.344 37.4219C167.812 36.9479 167.547 36.3385 167.547 35.5938C167.547 34.8333 167.828 34.237 168.391 33.8047C168.953 33.3724 169.758 33.125 170.805 33.0625L172.914 32.9375V32.3828C172.914 31.9974 172.786 31.6953 172.531 31.4766C172.281 31.2578 171.94 31.1484 171.508 31.1484C171.091 31.1484 170.75 31.2422 170.484 31.4297C170.224 31.6172 170.065 31.8698 170.008 32.1875H167.922C167.964 31.3646 168.315 30.7031 168.977 30.2031C169.638 29.6979 170.516 29.4453 171.609 29.4453C172.682 29.4453 173.542 29.7005 174.188 30.2109C174.833 30.7214 175.156 31.3984 175.156 32.2422V38H172.953V36.7188H172.906C172.677 37.1562 172.328 37.5026 171.859 37.7578C171.391 38.0078 170.888 38.1328 170.352 38.1328ZM178.914 38H176.773V29.625H179.727L181.914 35.0938H181.969L184.156 29.625H187.078V38H184.938V32.3984H184.883L182.711 37.5312H181.133L178.969 32.3984H178.914V38ZM195.602 37.0234C194.857 37.7943 193.846 38.1797 192.57 38.1797C191.294 38.1797 190.284 37.7917 189.539 37.0156C188.794 36.2396 188.422 35.1693 188.422 33.8047C188.422 32.4557 188.797 31.3932 189.547 30.6172C190.302 29.8359 191.31 29.4453 192.57 29.4453C193.836 29.4453 194.844 29.8359 195.594 30.6172C196.344 31.3932 196.719 32.4557 196.719 33.8047C196.719 35.1745 196.346 36.2474 195.602 37.0234ZM192.57 36.4375C193.133 36.4375 193.578 36.2083 193.906 35.75C194.234 35.2917 194.398 34.6458 194.398 33.8125C194.398 32.9896 194.234 32.3464 193.906 31.8828C193.578 31.4193 193.133 31.1875 192.57 31.1875C192.008 31.1875 191.56 31.4193 191.227 31.8828C190.898 32.3464 190.734 32.9896 190.734 33.8125C190.734 34.6458 190.898 35.2917 191.227 35.75C191.555 36.2083 192.003 36.4375 192.57 36.4375ZM201.625 31.0703H200.273V33.0156H201.508C201.924 33.0156 202.242 32.9323 202.461 32.7656C202.685 32.5938 202.797 32.349 202.797 32.0312C202.797 31.724 202.695 31.487 202.492 31.3203C202.289 31.1536 202 31.0703 201.625 31.0703ZM201.625 34.3359H200.273V36.5547H201.727C202.174 36.5547 202.516 36.4609 202.75 36.2734C202.99 36.0807 203.109 35.8021 203.109 35.4375C203.109 34.7031 202.615 34.3359 201.625 34.3359ZM198.039 38V29.625H202.234C203.104 29.625 203.786 29.8125 204.281 30.1875C204.776 30.5573 205.023 31.0729 205.023 31.7344C205.023 32.1823 204.878 32.5807 204.586 32.9297C204.299 33.2734 203.94 33.4792 203.508 33.5469V33.6094C204.07 33.6771 204.526 33.8906 204.875 34.25C205.224 34.6094 205.398 35.0521 205.398 35.5781C205.398 36.3125 205.12 36.901 204.562 37.3438C204.01 37.7812 203.26 38 202.312 38H198.039ZM214.742 38V29.625H217.016V38H214.742ZM210.305 33.7266H209.047V36.2969H210.305C210.716 36.2969 211.044 36.1797 211.289 35.9453C211.539 35.7057 211.664 35.3932 211.664 35.0078C211.664 34.6224 211.539 34.3125 211.289 34.0781C211.044 33.8438 210.716 33.7266 210.305 33.7266ZM206.773 38V29.625H209.047V32.0469H210.68C211.669 32.0469 212.456 32.3151 213.039 32.8516C213.628 33.388 213.922 34.112 213.922 35.0234C213.922 35.9349 213.628 36.6589 213.039 37.1953C212.456 37.7318 211.669 38 210.68 38H206.773ZM222.234 31.0703H220.883V33.0156H222.117C222.534 33.0156 222.852 32.9323 223.07 32.7656C223.294 32.5938 223.406 32.349 223.406 32.0312C223.406 31.724 223.305 31.487 223.102 31.3203C222.898 31.1536 222.609 31.0703 222.234 31.0703ZM222.234 34.3359H220.883V36.5547H222.336C222.784 36.5547 223.125 36.4609 223.359 36.2734C223.599 36.0807 223.719 35.8021 223.719 35.4375C223.719 34.7031 223.224 34.3359 222.234 34.3359ZM218.648 38V29.625H222.844C223.714 29.625 224.396 29.8125 224.891 30.1875C225.385 30.5573 225.633 31.0729 225.633 31.7344C225.633 32.1823 225.487 32.5807 225.195 32.9297C224.909 33.2734 224.549 33.4792 224.117 33.5469V33.6094C224.68 33.6771 225.135 33.8906 225.484 34.25C225.833 34.6094 226.008 35.0521 226.008 35.5781C226.008 36.3125 225.729 36.901 225.172 37.3438C224.62 37.7812 223.87 38 222.922 38H218.648ZM234.258 37.0234C233.513 37.7943 232.503 38.1797 231.227 38.1797C229.951 38.1797 228.94 37.7917 228.195 37.0156C227.451 36.2396 227.078 35.1693 227.078 33.8047C227.078 32.4557 227.453 31.3932 228.203 30.6172C228.958 29.8359 229.966 29.4453 231.227 29.4453C232.492 29.4453 233.5 29.8359 234.25 30.6172C235 31.3932 235.375 32.4557 235.375 33.8047C235.375 35.1745 235.003 36.2474 234.258 37.0234ZM231.227 36.4375C231.789 36.4375 232.234 36.2083 232.562 35.75C232.891 35.2917 233.055 34.6458 233.055 33.8125C233.055 32.9896 232.891 32.3464 232.562 31.8828C232.234 31.4193 231.789 31.1875 231.227 31.1875C230.664 31.1875 230.216 31.4193 229.883 31.8828C229.555 32.3464 229.391 32.9896 229.391 33.8125C229.391 34.6458 229.555 35.2917 229.883 35.75C230.211 36.2083 230.659 36.4375 231.227 36.4375ZM240.086 38.1797C238.997 38.1797 238.12 37.9297 237.453 37.4297C236.786 36.9245 236.414 36.2292 236.336 35.3438H238.508C238.706 36.0573 239.232 36.4141 240.086 36.4141C240.534 36.4141 240.88 36.3229 241.125 36.1406C241.37 35.9583 241.492 35.7135 241.492 35.4062C241.492 34.7656 241.026 34.4453 240.094 34.4453H238.938V32.9609H240.031C240.844 32.9609 241.25 32.6667 241.25 32.0781C241.25 31.7969 241.146 31.5755 240.938 31.4141C240.734 31.2474 240.438 31.1641 240.047 31.1641C239.646 31.1641 239.323 31.25 239.078 31.4219C238.839 31.5885 238.693 31.8307 238.641 32.1484H236.492C236.576 31.3099 236.93 30.651 237.555 30.1719C238.185 29.6875 239.01 29.4453 240.031 29.4453C241.141 29.4453 241.99 29.6536 242.578 30.0703C243.172 30.487 243.469 31.0729 243.469 31.8281C243.469 32.25 243.357 32.6172 243.133 32.9297C242.909 33.2422 242.602 33.4531 242.211 33.5625V33.625C242.716 33.7552 243.102 33.9818 243.367 34.3047C243.633 34.6276 243.766 35.0234 243.766 35.4922C243.766 36.3203 243.435 36.9766 242.773 37.4609C242.117 37.9401 241.221 38.1797 240.086 38.1797Z" fill="black"/>
</g>
<defs>
<filter id="filter0_d_249_5249" x="0" y="0" width="357" height="64" filterUnits="userSpaceOnUse" color-interpolation-filters="sRGB">
<feFlood flood-opacity="0" result="BackgroundImageFix"/>
<feColorMatrix in="SourceAlpha" type="matrix" values="0 0 0 0 0 0 0 0 0 0 0 0 0 0 0 0 0 0 127 0" result="hardAlpha"/>
<feOffset/>
<feGaussianBlur stdDeviation="2"/>
<feComposite in2="hardAlpha" operator="out"/>
<feColorMatrix type="matrix" values="0 0 0 0 0.295833 0 0 0 0 0.295833 0 0 0 0 0.295833 0 0 0 0.25 0"/>
<feBlend mode="normal" in2="BackgroundImageFix" result="effect1_dropShadow_249_5249"/>
<feBlend mode="normal" in="SourceGraphic" in2="effect1_dropShadow_249_5249" result="shape"/>
</filter>
</defs>
</svg>
