<svg width="357" height="64" viewBox="0 0 357 64" fill="none" xmlns="http://www.w3.org/2000/svg">
<g filter="url(#filter0_d_249_5240)">
<rect x="4" y="4" width="349" height="56" rx="16" fill="white" shape-rendering="crispEdges"/>
<g clip-path="url(#clip0_249_5240)">
<path d="M246.007 33.7368V23.2565H242.042V39.5329H245.377L254.921 28.9605V39.5329H258.886V23.2565H255.558L246.013 33.7368H246.007ZM288.47 33.8223V23.25H284.505V39.5263H287.834L297.378 28.8684V39.5263H301.343V23.25H297.833L288.47 33.8223ZM276.046 29.5789H267.352V23.2565H263.387V39.5329H267.352V33.1644H276.046V39.5329H280.011V23.2565H276.046V29.5789ZM227.782 23.2565L218.278 39.5329H222.96L229.222 28.7829L235.525 39.5329H240.434L230.93 23.2565H227.782ZM319.186 23.2565L309.816 33.8289V23.2565H305.857V39.5329H309.193L318.737 28.875V39.5329H322.702V23.2565H319.192H319.186ZM222.92 23.2565H204.461V26.8355H220.803L222.92 23.2565ZM204.461 29.5789V33.1579H217.113L219.229 29.5789H204.461ZM116.922 23.2565H98.4637V26.8355H114.806L116.922 23.2565ZM83.7288 19.671H80.4871L70.9898 35.9473H68.6055V44.3092H72.383V39.5329H91.833V44.3092H95.6172V35.9473H93.2328L83.7355 19.671H83.7288ZM75.7117 35.9473L81.9673 25.1973L88.2698 35.9473H75.705H75.7117ZM144.43 22.8552C137.813 22.8552 134.658 26.8355 134.658 31.3026C134.658 35.7697 137.719 39.75 144.43 39.75C147.357 39.75 154.108 38.421 154.108 31.3026C154.108 26.6579 151.087 22.8552 144.43 22.8552ZM144.383 36.171C140.559 36.171 138.938 34.0065 138.938 31.3487C138.938 28.4276 140.786 26.4802 144.383 26.4802C148.435 26.4802 149.828 28.4276 149.828 31.3487C149.828 34.8421 147.176 36.171 144.383 36.171ZM121.778 23.2565L112.281 39.5329H116.963L123.225 28.7829L129.528 39.5329H134.437L124.94 23.2565H121.785H121.778ZM196.029 39.5329H199.947V23.2565H196.029V39.5329ZM188.554 29.0921H182.52V23.2565H178.554V39.5329H188.507C191.206 39.5329 193.999 38.0723 193.999 34.2237C193.999 29.1776 190.396 29.0921 188.547 29.0921H188.554ZM188.326 36.0789H182.52V32.4539H188.326C189.003 32.4539 190.041 32.6315 190.041 34.2697C190.041 35.7763 189.19 36.0855 188.326 36.0855V36.0789ZM98.4503 29.5789V33.1579H111.102L113.219 29.5789H98.4503ZM204.448 39.5329H213.409L215.479 35.9473H204.448V39.5329ZM171.435 29.9342C172.486 29.4934 173.377 28.7894 173.377 27.0197C173.377 23.6579 170.497 23.2631 168.468 23.2631H157.752V39.5394H168.649C173.645 39.5394 174.683 36.8421 174.683 34.3618C174.683 31.5723 173.069 30.421 171.435 29.9342ZM161.67 26.7105H168.019C168.963 26.7105 169.372 27.1973 169.372 28.125C169.372 29.0526 168.742 29.5855 168.019 29.5855H161.67V26.7105ZM168.649 36.0855H161.67V32.5921H168.649C169.774 32.5921 170.584 32.8552 170.584 34.3158C170.584 35.4671 170.089 36.0855 168.649 36.0855ZM98.4503 39.5329H107.412L109.481 35.9473H98.4503V39.5329Z" fill="#1A1A18"/>
<path d="M52.1226 36.2148L42.6819 29.4057L40.3755 33.2859L51.1632 37.8265L52.1188 36.2148H52.1226ZM53.5733 33.7747L45.4835 24.6898L43.1962 28.5439L52.6331 35.3566L53.5733 33.771V33.7747ZM55.3079 30.8533L48.5651 19.5L46.0207 23.7869L54.1106 32.8681L55.3079 30.8533ZM37.0444 38.9048L34.5 43.1842H47.9818L49.1791 41.1695L37.0444 38.9011V38.9048ZM49.1523 43.1842H52.7405L55.8913 37.875L59.042 43.1842H62.6302L55.8913 31.8346L49.1523 43.1842ZM50.6567 38.6809L39.8689 34.1441L37.5778 38.0019L49.7126 40.2703L50.6528 38.6847L50.6567 38.6809Z" fill="#F9AE00"/>
</g>
</g>
<defs>
<filter id="filter0_d_249_5240" x="0" y="0" width="357" height="64" filterUnits="userSpaceOnUse" color-interpolation-filters="sRGB">
<feFlood flood-opacity="0" result="BackgroundImageFix"/>
<feColorMatrix in="SourceAlpha" type="matrix" values="0 0 0 0 0 0 0 0 0 0 0 0 0 0 0 0 0 0 127 0" result="hardAlpha"/>
<feOffset/>
<feGaussianBlur stdDeviation="2"/>
<feComposite in2="hardAlpha" operator="out"/>
<feColorMatrix type="matrix" values="0 0 0 0 0.295833 0 0 0 0 0.295833 0 0 0 0 0.295833 0 0 0 0.25 0"/>
<feBlend mode="normal" in2="BackgroundImageFix" result="effect1_dropShadow_249_5240"/>
<feBlend mode="normal" in="SourceGraphic" in2="effect1_dropShadow_249_5240" result="shape"/>
</filter>
<clipPath id="clip0_249_5240">
<rect width="288" height="25" fill="white" transform="translate(34.5 19.5)"/>
</clipPath>
</defs>
</svg>
