<svg width="14" height="15" viewBox="0 0 14 15" fill="none" xmlns="http://www.w3.org/2000/svg">
<path d="M8.50747 14.3552L13.8693 7.88125C13.953 7.78009 14 7.64297 14 7.5C14 7.35703 13.953 7.21991 13.8693 7.11876L8.50747 0.644795C8.42277 0.549499 8.31074 0.497618 8.19498 0.500084C8.07923 0.50255 7.96878 0.55917 7.88692 0.658015C7.80505 0.75686 7.75816 0.890213 7.75611 1.02998C7.75407 1.16975 7.79704 1.30501 7.87597 1.40728L12.4745 6.9605L0.446821 6.9605C0.328316 6.9605 0.214666 7.01734 0.130871 7.11852C0.0470753 7.21969 -2.99725e-07 7.35692 -3.0598e-07 7.5C-3.12234e-07 7.64308 0.0470753 7.78031 0.13087 7.88148C0.214666 7.98266 0.328316 8.0395 0.446821 8.0395L12.4745 8.0395L7.87597 13.5927C7.79704 13.695 7.75407 13.8303 7.75611 13.97C7.75816 14.1098 7.80505 14.2431 7.88692 14.342C7.96878 14.4408 8.07923 14.4975 8.19498 14.4999C8.31074 14.5024 8.42277 14.4505 8.50747 14.3552Z" fill="#171717"/>
</svg>
