<svg width="16" height="17" viewBox="0 0 16 17" fill="none" xmlns="http://www.w3.org/2000/svg">
<path d="M1.35833 7.56454L6.60592 1.2275C6.62057 1.20635 6.6367 1.16612 6.63592 1.11299C6.63546 1.081 6.62902 1.05444 6.62094 1.03428L0.534616 8.38298C0.519925 8.40075 0.500002 8.44185 0.500002 8.5C0.500002 8.55807 0.51987 8.59914 0.534556 8.61694C0.534576 8.61697 0.534595 8.61699 0.534615 8.61702L6.62094 15.9657C6.62902 15.9456 6.63546 15.919 6.63592 15.887C6.6367 15.8339 6.62057 15.7936 6.60592 15.7725L1.35833 9.43547L0.680212 8.61657L1.74343 8.61657L15.4658 8.61657C15.4804 8.59858 15.5 8.55768 15.5 8.5C15.5 8.44232 15.4804 8.40142 15.4658 8.38343L1.74343 8.38343L0.680212 8.38343L1.35833 7.56454Z" fill="#171717" stroke="#171717"/>
</svg>
