<svg width="40" height="37" viewBox="0 0 40 37" fill="none" xmlns="http://www.w3.org/2000/svg">
<rect width="40" height="37" rx="5" fill="#171717"/>
<path d="M9.33333 26.5H30.6667C31.4 26.5 32 25.9 32 25.1667C32 24.4333 31.4 23.8333 30.6667 23.8333H9.33333C8.6 23.8333 8 24.4333 8 25.1667C8 25.9 8.6 26.5 9.33333 26.5ZM9.33333 19.8333H30.6667C31.4 19.8333 32 19.2333 32 18.5C32 17.7667 31.4 17.1667 30.6667 17.1667H9.33333C8.6 17.1667 8 17.7667 8 18.5C8 19.2333 8.6 19.8333 9.33333 19.8333ZM8 11.8333C8 12.5667 8.6 13.1667 9.33333 13.1667H30.6667C31.4 13.1667 32 12.5667 32 11.8333C32 11.1 31.4 10.5 30.6667 10.5H9.33333C8.6 10.5 8 11.1 8 11.8333Z" fill="#DCDCDC"/>
</svg>
