<svg width="96" height="86" viewBox="0 0 96 86" fill="none" xmlns="http://www.w3.org/2000/svg">
<g filter="url(#filter0_d_231_2202)">
<rect x="4" y="4" width="88" height="78" rx="4" fill="white" shape-rendering="crispEdges"/>
<g clip-path="url(#clip0_231_2202)">
<path d="M48 8C36.955 8 28 16.955 28 28C28 39.045 36.955 48 48 48C59.045 48 68 39.045 68 28C68 16.955 59.045 8 48 8ZM57.8233 21.7017L54.54 37.1683C54.2983 38.265 53.645 38.5317 52.7333 38.015L47.7333 34.3317L45.3233 36.655C45.2052 36.8079 45.0537 36.9317 44.8804 37.0169C44.707 37.1021 44.5165 37.1465 44.3233 37.1467H44.315L44.67 32.0567L53.9367 23.6867C54.3367 23.3317 53.8467 23.13 53.315 23.485L41.8667 30.695L36.9333 29.155C35.8667 28.8167 35.8367 28.0883 37.1583 27.565L56.435 20.135C57.3317 19.8083 58.1117 20.3483 57.8217 21.7033L57.8233 21.7017Z" fill="#54CCFF"/>
</g>
<path d="M22.3516 71H20.9453V60.9922H17.3906V59.7266H25.9062V60.9922H22.3516V71ZM28.3281 63.9141C27.6979 63.9141 27.1745 64.1328 26.7578 64.5703C26.3464 65.0026 26.1198 65.5599 26.0781 66.2422H30.4922C30.4766 65.5547 30.2708 64.9948 29.875 64.5625C29.4792 64.1302 28.9635 63.9141 28.3281 63.9141ZM30.4609 68.6719H31.7969C31.6771 69.3906 31.3021 69.9818 30.6719 70.4453C30.0469 70.9089 29.2943 71.1406 28.4141 71.1406C27.2526 71.1406 26.3385 70.7656 25.6719 70.0156C25.0052 69.2656 24.6719 68.25 24.6719 66.9688C24.6719 65.6979 25.0052 64.6745 25.6719 63.8984C26.3438 63.1224 27.237 62.7344 28.3516 62.7344C29.4453 62.7344 30.3099 63.1016 30.9453 63.8359C31.5807 64.5703 31.8984 65.5547 31.8984 66.7891V67.3047H26.0703V67.3828C26.0703 68.1641 26.2839 68.7891 26.7109 69.2578C27.138 69.7266 27.7161 69.9609 28.4453 69.9609C28.9557 69.9609 29.3906 69.8438 29.75 69.6094C30.1094 69.375 30.3464 69.0625 30.4609 68.6719ZM33.3438 71V59.7266H34.7031V71H33.3438ZM39.7969 63.9141C39.1667 63.9141 38.6432 64.1328 38.2266 64.5703C37.8151 65.0026 37.5885 65.5599 37.5469 66.2422H41.9609C41.9453 65.5547 41.7396 64.9948 41.3438 64.5625C40.9479 64.1302 40.4323 63.9141 39.7969 63.9141ZM41.9297 68.6719H43.2656C43.1458 69.3906 42.7708 69.9818 42.1406 70.4453C41.5156 70.9089 40.763 71.1406 39.8828 71.1406C38.7214 71.1406 37.8073 70.7656 37.1406 70.0156C36.474 69.2656 36.1406 68.25 36.1406 66.9688C36.1406 65.6979 36.474 64.6745 37.1406 63.8984C37.8125 63.1224 38.7057 62.7344 39.8203 62.7344C40.9141 62.7344 41.7786 63.1016 42.4141 63.8359C43.0495 64.5703 43.3672 65.5547 43.3672 66.7891V67.3047H37.5391V67.3828C37.5391 68.1641 37.7526 68.7891 38.1797 69.2578C38.6068 69.7266 39.1849 69.9609 39.9141 69.9609C40.4245 69.9609 40.8594 69.8438 41.2188 69.6094C41.5781 69.375 41.8151 69.0625 41.9297 68.6719ZM48.0469 69.8672C48.7552 69.8672 49.3255 69.5964 49.7578 69.0547C50.1901 68.513 50.4062 67.7969 50.4062 66.9062C50.4062 66.0104 50.1901 65.2917 49.7578 64.75C49.3255 64.2031 48.7552 63.9297 48.0469 63.9297C47.3438 63.9297 46.7812 64.2005 46.3594 64.7422C45.9427 65.2786 45.7344 66 45.7344 66.9062C45.7344 67.8125 45.9427 68.5339 46.3594 69.0703C46.7812 69.6016 47.3438 69.8672 48.0469 69.8672ZM48.0938 74.0625C47.2031 74.0625 46.4375 73.8359 45.7969 73.3828C45.1562 72.9349 44.7786 72.3646 44.6641 71.6719H46.0625C46.1979 72.0469 46.4531 72.3464 46.8281 72.5703C47.2031 72.7943 47.6432 72.9062 48.1484 72.9062C48.8464 72.9062 49.3958 72.7214 49.7969 72.3516C50.2031 71.9818 50.4062 71.4922 50.4062 70.8828V69.6016H50.375C50.1198 70.0495 49.763 70.4062 49.3047 70.6719C48.8464 70.9323 48.3359 71.0625 47.7734 71.0625C46.737 71.0625 45.9062 70.6849 45.2812 69.9297C44.6562 69.1745 44.3438 68.1667 44.3438 66.9062C44.3438 65.6354 44.6562 64.6224 45.2812 63.8672C45.9115 63.112 46.7526 62.7344 47.8047 62.7344C48.3776 62.7344 48.8932 62.8672 49.3516 63.1328C49.8099 63.3984 50.1745 63.7682 50.4453 64.2422H50.4688V62.875H51.7656V70.8359C51.7656 71.8099 51.4323 72.5911 50.7656 73.1797C50.099 73.7682 49.2083 74.0625 48.0938 74.0625ZM53.5391 71V62.875H54.8203V64.2031H54.8516C54.987 63.75 55.2292 63.3932 55.5781 63.1328C55.9323 62.8672 56.3464 62.7344 56.8203 62.7344C56.9297 62.7344 57.112 62.7526 57.3672 62.7891V64.1094C57.2214 64.0573 56.9792 64.0312 56.6406 64.0312C56.1146 64.0312 55.6927 64.2057 55.375 64.5547C55.0573 64.9036 54.8984 65.3646 54.8984 65.9375V71H53.5391ZM61 69.9844C61.6406 69.9844 62.1771 69.7865 62.6094 69.3906C63.0469 68.9896 63.2656 68.4974 63.2656 67.9141V67.25L61.0938 67.3828C60.5469 67.4193 60.1224 67.5521 59.8203 67.7812C59.5234 68.0104 59.375 68.3177 59.375 68.7031C59.375 69.0885 59.5234 69.3984 59.8203 69.6328C60.1172 69.8672 60.5104 69.9844 61 69.9844ZM60.6953 71.1406C59.888 71.1406 59.2344 70.9167 58.7344 70.4688C58.2396 70.0208 57.9922 69.4323 57.9922 68.7031C57.9922 68.0052 58.2474 67.4479 58.7578 67.0312C59.2734 66.6146 60 66.3802 60.9375 66.3281L63.2656 66.1953V65.5156C63.2656 65.0208 63.1094 64.6328 62.7969 64.3516C62.4844 64.0703 62.0469 63.9297 61.4844 63.9297C60.9688 63.9297 60.5495 64.0443 60.2266 64.2734C59.9036 64.4974 59.6979 64.8125 59.6094 65.2188H58.2969C58.3438 64.4948 58.6562 63.901 59.2344 63.4375C59.8177 62.9688 60.5781 62.7344 61.5156 62.7344C62.4688 62.7344 63.224 62.974 63.7812 63.4531C64.3438 63.9323 64.625 64.5755 64.625 65.3828V71H63.3359V69.6016H63.3047C63.0599 70.0651 62.7005 70.4375 62.2266 70.7188C61.7526 71 61.2422 71.1406 60.6953 71.1406ZM66.3516 71V62.875H67.6328V64.1719H67.6641C67.862 63.7292 68.1615 63.3802 68.5625 63.125C68.9635 62.8646 69.4323 62.7344 69.9688 62.7344C70.5208 62.7344 70.9948 62.8698 71.3906 63.1406C71.7865 63.4062 72.0729 63.7865 72.25 64.2812H72.2812C72.5052 63.7969 72.8411 63.4193 73.2891 63.1484C73.7422 62.8724 74.2552 62.7344 74.8281 62.7344C75.6302 62.7344 76.2708 62.9766 76.75 63.4609C77.2344 63.9401 77.4766 64.5833 77.4766 65.3906V71H76.1172V65.7031C76.1172 65.1458 75.9688 64.7135 75.6719 64.4062C75.3802 64.0938 74.9661 63.9375 74.4297 63.9375C73.8932 63.9375 73.4531 64.1172 73.1094 64.4766C72.7656 64.8307 72.5938 65.2839 72.5938 65.8359V71H71.2344V65.5547C71.2344 65.0651 71.0833 64.6745 70.7812 64.3828C70.4792 64.0859 70.0755 63.9375 69.5703 63.9375C69.0339 63.9375 68.5885 64.125 68.2344 64.5C67.8854 64.875 67.7109 65.3438 67.7109 65.9062V71H66.3516Z" fill="black"/>
</g>
<defs>
<filter id="filter0_d_231_2202" x="0" y="0" width="96" height="86" filterUnits="userSpaceOnUse" color-interpolation-filters="sRGB">
<feFlood flood-opacity="0" result="BackgroundImageFix"/>
<feColorMatrix in="SourceAlpha" type="matrix" values="0 0 0 0 0 0 0 0 0 0 0 0 0 0 0 0 0 0 127 0" result="hardAlpha"/>
<feOffset/>
<feGaussianBlur stdDeviation="2"/>
<feComposite in2="hardAlpha" operator="out"/>
<feColorMatrix type="matrix" values="0 0 0 0 0.295833 0 0 0 0 0.295833 0 0 0 0 0.295833 0 0 0 0.25 0"/>
<feBlend mode="normal" in2="BackgroundImageFix" result="effect1_dropShadow_231_2202"/>
<feBlend mode="normal" in="SourceGraphic" in2="effect1_dropShadow_231_2202" result="shape"/>
</filter>
<clipPath id="clip0_231_2202">
<rect width="40" height="40" fill="white" transform="translate(28 8)"/>
</clipPath>
</defs>
</svg>
