<svg width="96" height="86" viewBox="0 0 96 86" fill="none" xmlns="http://www.w3.org/2000/svg">
<g filter="url(#filter0_d_231_2201)">
<rect x="4" y="4" width="88" height="78" rx="4" fill="white" shape-rendering="crispEdges"/>
<g clip-path="url(#clip0_231_2201)">
<path d="M25.0252 28.457C25.024 32.4402 26.086 36.3294 28.1054 39.7575L24.832 51.47L37.063 48.3272C40.446 50.132 44.2363 51.0777 48.088 51.0779H48.0982C60.8135 51.0779 71.164 40.9381 71.1695 28.4749C71.1719 22.4356 68.7742 16.7566 64.4178 12.4841C60.0622 8.21188 54.2693 5.85786 48.0972 5.8551C35.3804 5.8551 25.0306 15.9944 25.0253 28.457" fill="url(#paint0_linear_231_2201)"/>
<path d="M24.2006 28.4496C24.1993 32.5761 25.2994 36.6044 27.3907 40.1552L24 52.2877L36.6696 49.0322C40.1604 50.8974 44.0908 51.8808 48.0902 51.8823H48.1005C61.272 51.8823 71.9944 41.3777 72 28.4684C72.0023 22.2121 69.5182 16.329 65.0062 11.9033C60.4937 7.47828 54.4937 5.03956 48.1005 5.03699C34.9267 5.03699 24.2059 15.5401 24.2006 28.4496ZM31.7456 39.5437L31.2726 38.8078C29.2839 35.709 28.2343 32.1281 28.2358 28.4511C28.2401 17.721 37.1509 8.99128 48.108 8.99128C53.4143 8.99348 58.401 11.0206 62.1517 14.6985C65.9023 18.3768 67.9661 23.2664 67.9648 28.4669C67.9599 39.197 59.049 47.9278 48.1005 47.9278H48.0926C44.5277 47.926 41.0314 46.9878 37.9823 45.2148L37.2566 44.7931L29.7382 46.7248L31.7456 39.5435V39.5437Z" fill="url(#paint1_linear_231_2201)"/>
<path d="M42.1277 18.6618C41.6803 17.6873 41.2095 17.6677 40.784 17.6506C40.4357 17.6359 40.0374 17.637 39.6395 17.637C39.2413 17.637 38.5942 17.7838 38.0473 18.369C37.4998 18.9548 35.957 20.3704 35.957 23.2496C35.957 26.129 38.097 28.9115 38.3953 29.3023C38.694 29.6924 42.5265 35.79 48.5962 38.1357C53.6407 40.0851 54.6673 39.6974 55.7621 39.5997C56.8571 39.5023 59.2953 38.1844 59.7928 36.8179C60.2906 35.4515 60.2906 34.2803 60.1413 34.0355C59.9921 33.7917 59.5938 33.6453 58.9967 33.3527C58.3993 33.06 55.4634 31.6442 54.9161 31.4489C54.3686 31.2537 53.9705 31.1564 53.5723 31.7423C53.174 32.3274 52.0305 33.6453 51.6819 34.0355C51.3337 34.4267 50.9852 34.4754 50.3882 34.1827C49.7906 33.8891 47.8674 33.2719 45.5857 31.2784C43.8105 29.7272 42.612 27.8116 42.2636 27.2256C41.9152 26.6405 42.2263 26.3234 42.5257 26.0318C42.794 25.7696 43.1231 25.3484 43.422 25.0068C43.7197 24.665 43.8191 24.4212 44.0182 24.0309C44.2175 23.6403 44.1178 23.2985 43.9687 23.0058C43.8191 22.7131 42.6587 19.8188 42.1277 18.6618Z" fill="white"/>
</g>
<path d="M19.3516 62.0547L16.75 71H15.4219L12.3516 59.7266H13.8203L16.0781 68.9297H16.1406L18.6797 59.7266H20.1016L22.6406 68.9297H22.7031L24.9609 59.7266H26.4297L23.3594 71H22.0312L19.4297 62.0547H19.3516ZM27.7344 71V59.7266H29.0938V64.1719H29.125C29.3542 63.7135 29.6875 63.3594 30.125 63.1094C30.5677 62.8594 31.0938 62.7344 31.7031 62.7344C32.5885 62.7344 33.2865 63.0078 33.7969 63.5547C34.3073 64.1016 34.5625 64.8333 34.5625 65.75V71H33.2031V66C33.2031 65.3438 33.0391 64.8359 32.7109 64.4766C32.388 64.1172 31.9115 63.9375 31.2812 63.9375C30.6094 63.9375 30.0755 64.1484 29.6797 64.5703C29.2891 64.9922 29.0938 65.5573 29.0938 66.2656V71H27.7344ZM38.9688 69.9844C39.6094 69.9844 40.1458 69.7865 40.5781 69.3906C41.0156 68.9896 41.2344 68.4974 41.2344 67.9141V67.25L39.0625 67.3828C38.5156 67.4193 38.0911 67.5521 37.7891 67.7812C37.4922 68.0104 37.3438 68.3177 37.3438 68.7031C37.3438 69.0885 37.4922 69.3984 37.7891 69.6328C38.0859 69.8672 38.4792 69.9844 38.9688 69.9844ZM38.6641 71.1406C37.8568 71.1406 37.2031 70.9167 36.7031 70.4688C36.2083 70.0208 35.9609 69.4323 35.9609 68.7031C35.9609 68.0052 36.2161 67.4479 36.7266 67.0312C37.2422 66.6146 37.9688 66.3802 38.9062 66.3281L41.2344 66.1953V65.5156C41.2344 65.0208 41.0781 64.6328 40.7656 64.3516C40.4531 64.0703 40.0156 63.9297 39.4531 63.9297C38.9375 63.9297 38.5182 64.0443 38.1953 64.2734C37.8724 64.4974 37.6667 64.8125 37.5781 65.2188H36.2656C36.3125 64.4948 36.625 63.901 37.2031 63.4375C37.7865 62.9688 38.5469 62.7344 39.4844 62.7344C40.4375 62.7344 41.1927 62.974 41.75 63.4531C42.3125 63.9323 42.5938 64.5755 42.5938 65.3828V71H41.3047V69.6016H41.2734C41.0286 70.0651 40.6693 70.4375 40.1953 70.7188C39.7214 71 39.2109 71.1406 38.6641 71.1406ZM44.7578 60.9141H46.1172V62.875H47.6953V63.9922H46.1172V68.8203C46.1172 69.1901 46.1979 69.4635 46.3594 69.6406C46.5208 69.8125 46.776 69.8984 47.125 69.8984C47.3438 69.8984 47.5312 69.8854 47.6875 69.8594V71C47.5104 71.0417 47.224 71.0625 46.8281 71.0625C46.0833 71.0625 45.5521 70.8958 45.2344 70.5625C44.9167 70.2292 44.7578 69.6719 44.7578 68.8906V63.9922H43.5469V62.875H44.7578V60.9141ZM49.0078 65.1172C49.0078 64.4193 49.2891 63.849 49.8516 63.4062C50.4193 62.9583 51.1484 62.7344 52.0391 62.7344C52.8776 62.7344 53.5755 62.9583 54.1328 63.4062C54.6901 63.8542 54.9844 64.4219 55.0156 65.1094H53.7188C53.6719 64.7135 53.4948 64.4036 53.1875 64.1797C52.8854 63.9557 52.487 63.8438 51.9922 63.8438C51.4974 63.8438 51.099 63.9557 50.7969 64.1797C50.4948 64.3984 50.3438 64.6875 50.3438 65.0469C50.3438 65.599 50.7943 65.9896 51.6953 66.2188L52.9531 66.5234C53.7708 66.7318 54.3464 67.0026 54.6797 67.3359C55.0182 67.6641 55.1875 68.1276 55.1875 68.7266C55.1875 69.4349 54.8854 70.0156 54.2812 70.4688C53.6771 70.9167 52.901 71.1406 51.9531 71.1406C51.0677 71.1406 50.3359 70.9219 49.7578 70.4844C49.1849 70.0417 48.862 69.4583 48.7891 68.7344H50.1484C50.2995 69.599 50.9297 70.0312 52.0391 70.0312C52.5859 70.0312 53.0182 69.9245 53.3359 69.7109C53.6589 69.4922 53.8203 69.1979 53.8203 68.8281C53.8203 68.5365 53.724 68.3047 53.5312 68.1328C53.3438 67.9609 53.0234 67.8151 52.5703 67.6953L51.1406 67.3281C49.7188 66.9635 49.0078 66.2266 49.0078 65.1172ZM64.1406 71L63.0078 67.7734H58.5234L57.3906 71H55.9141L60.0703 59.7266H61.4609L65.6172 71H64.1406ZM60.7422 61.4375L58.9375 66.5781H62.5938L60.7891 61.4375H60.7422ZM70.6406 62.7344C71.6823 62.7344 72.5208 63.1172 73.1562 63.8828C73.7969 64.6484 74.1172 65.6667 74.1172 66.9375C74.1172 68.2031 73.7995 69.2214 73.1641 69.9922C72.5286 70.7578 71.6979 71.1406 70.6719 71.1406C70.099 71.1406 69.5859 71.0104 69.1328 70.75C68.6797 70.4896 68.3307 70.1328 68.0859 69.6797H68.0547V73.7109H66.6953V62.875H67.9844V64.25H68.0156C68.2708 63.7812 68.6276 63.4115 69.0859 63.1406C69.5443 62.8698 70.0625 62.7344 70.6406 62.7344ZM70.375 69.9453C71.099 69.9453 71.6719 69.6745 72.0938 69.1328C72.5156 68.5911 72.7266 67.8594 72.7266 66.9375C72.7266 66.0156 72.5156 65.2839 72.0938 64.7422C71.6719 64.2005 71.099 63.9297 70.375 63.9297C69.6771 63.9297 69.1146 64.2057 68.6875 64.7578C68.2604 65.3099 68.0469 66.0365 68.0469 66.9375C68.0469 67.8438 68.2604 68.5729 68.6875 69.125C69.1146 69.6719 69.6771 69.9453 70.375 69.9453ZM79.4375 62.7344C80.4792 62.7344 81.3177 63.1172 81.9531 63.8828C82.5938 64.6484 82.9141 65.6667 82.9141 66.9375C82.9141 68.2031 82.5964 69.2214 81.9609 69.9922C81.3255 70.7578 80.4948 71.1406 79.4688 71.1406C78.8958 71.1406 78.3828 71.0104 77.9297 70.75C77.4766 70.4896 77.1276 70.1328 76.8828 69.6797H76.8516V73.7109H75.4922V62.875H76.7812V64.25H76.8125C77.0677 63.7812 77.4245 63.4115 77.8828 63.1406C78.3411 62.8698 78.8594 62.7344 79.4375 62.7344ZM79.1719 69.9453C79.8958 69.9453 80.4688 69.6745 80.8906 69.1328C81.3125 68.5911 81.5234 67.8594 81.5234 66.9375C81.5234 66.0156 81.3125 65.2839 80.8906 64.7422C80.4688 64.2005 79.8958 63.9297 79.1719 63.9297C78.474 63.9297 77.9115 64.2057 77.4844 64.7578C77.0573 65.3099 76.8438 66.0365 76.8438 66.9375C76.8438 67.8438 77.0573 68.5729 77.4844 69.125C77.9115 69.6719 78.474 69.9453 79.1719 69.9453Z" fill="black"/>
</g>
<defs>
<filter id="filter0_d_231_2201" x="0" y="0" width="96" height="86" filterUnits="userSpaceOnUse" color-interpolation-filters="sRGB">
<feFlood flood-opacity="0" result="BackgroundImageFix"/>
<feColorMatrix in="SourceAlpha" type="matrix" values="0 0 0 0 0 0 0 0 0 0 0 0 0 0 0 0 0 0 127 0" result="hardAlpha"/>
<feOffset/>
<feGaussianBlur stdDeviation="2"/>
<feComposite in2="hardAlpha" operator="out"/>
<feColorMatrix type="matrix" values="0 0 0 0 0.295833 0 0 0 0 0.295833 0 0 0 0 0.295833 0 0 0 0.25 0"/>
<feBlend mode="normal" in2="BackgroundImageFix" result="effect1_dropShadow_231_2201"/>
<feBlend mode="normal" in="SourceGraphic" in2="effect1_dropShadow_231_2201" result="shape"/>
</filter>
<linearGradient id="paint0_linear_231_2201" x1="2341.7" y1="4567.35" x2="2341.7" y2="5.8551" gradientUnits="userSpaceOnUse">
<stop stop-color="#1FAF38"/>
<stop offset="1" stop-color="#60D669"/>
</linearGradient>
<linearGradient id="paint1_linear_231_2201" x1="2424" y1="4730.1" x2="2424" y2="5.03699" gradientUnits="userSpaceOnUse">
<stop stop-color="#F9F9F9"/>
<stop offset="1" stop-color="white"/>
</linearGradient>
<clipPath id="clip0_231_2201">
<rect width="48" height="40" fill="white" transform="translate(24 8)"/>
</clipPath>
</defs>
</svg>
