<svg width="40" height="40" viewBox="0 0 40 40" fill="none" xmlns="http://www.w3.org/2000/svg">
<path d="M8.125 22.8125H5.625C5.37636 22.8125 5.1379 22.9113 4.96209 23.0871C4.78627 23.2629 4.6875 23.5014 4.6875 23.75V32.5C4.6875 32.7486 4.78627 32.9871 4.96209 33.1629C5.1379 33.3387 5.37636 33.4375 5.625 33.4375H8.125C9.53396 33.4375 10.8852 32.8778 11.8815 31.8815C12.8778 30.8852 13.4375 29.534 13.4375 28.125C13.4375 26.716 12.8778 25.3648 11.8815 24.3685C10.8852 23.3722 9.53396 22.8125 8.125 22.8125ZM8.125 31.5625H6.5625V24.6875H8.125C9.03668 24.6875 9.91102 25.0497 10.5557 25.6943C11.2003 26.339 11.5625 27.2133 11.5625 28.125C11.5625 29.0367 11.2003 29.911 10.5557 30.5557C9.91102 31.2003 9.03668 31.5625 8.125 31.5625ZM34.3984 30.7094C34.5778 30.8814 34.6815 31.1176 34.6868 31.3661C34.692 31.6145 34.5984 31.8549 34.4266 32.0344C34.0205 32.4722 33.5294 32.8226 32.9831 33.0638C32.4369 33.3051 31.8471 33.4323 31.25 33.4375C28.6656 33.4375 26.5625 31.0547 26.5625 28.125C26.5625 25.1953 28.6656 22.8125 31.25 22.8125C31.8474 22.8181 32.4373 22.9458 32.9835 23.1876C33.5297 23.4294 34.0208 23.7803 34.4266 24.2188C34.5904 24.3996 34.6772 24.6373 34.6686 24.8812C34.66 25.1251 34.5566 25.3561 34.3804 25.5249C34.2042 25.6938 33.9691 25.7873 33.725 25.7856C33.481 25.7838 33.2472 25.687 33.0734 25.5156C32.8416 25.261 32.5604 25.0563 32.2469 24.9139C31.9334 24.7716 31.5942 24.6945 31.25 24.6875C29.6984 24.6875 28.4375 26.2297 28.4375 28.125C28.4375 30.0203 29.6984 31.5625 31.25 31.5625C31.594 31.5559 31.9331 31.4793 32.2465 31.3375C32.56 31.1957 32.8414 30.9915 33.0734 30.7375C33.2455 30.5582 33.4817 30.4544 33.7301 30.4492C33.9786 30.4439 34.219 30.5375 34.3984 30.7094ZM20 22.8125C17.4156 22.8125 15.3125 25.1953 15.3125 28.125C15.3125 31.0547 17.4156 33.4375 20 33.4375C22.5844 33.4375 24.6875 31.0547 24.6875 28.125C24.6875 25.1953 22.5844 22.8125 20 22.8125ZM20 31.5625C18.4484 31.5625 17.1875 30.0203 17.1875 28.125C17.1875 26.2297 18.4484 24.6875 20 24.6875C21.5516 24.6875 22.8125 26.2297 22.8125 28.125C22.8125 30.0203 21.5516 31.5625 20 31.5625ZM7.5 18.4375C7.74864 18.4375 7.9871 18.3387 8.16291 18.1629C8.33873 17.9871 8.4375 17.7486 8.4375 17.5V6.25C8.4375 6.16712 8.47042 6.08763 8.52903 6.02903C8.58763 5.97042 8.66712 5.9375 8.75 5.9375H22.8125V13.75C22.8125 13.9986 22.9113 14.2371 23.0871 14.4129C23.2629 14.5887 23.5014 14.6875 23.75 14.6875H31.5625V17.5C31.5625 17.7486 31.6613 17.9871 31.8371 18.1629C32.0129 18.3387 32.2514 18.4375 32.5 18.4375C32.7486 18.4375 32.9871 18.3387 33.1629 18.1629C33.3387 17.9871 33.4375 17.7486 33.4375 17.5V13.75C33.4373 13.5014 33.3384 13.2631 33.1625 13.0875L24.4125 4.3375C24.2369 4.16163 23.9986 4.06272 23.75 4.0625H8.75C8.16984 4.0625 7.61344 4.29297 7.2032 4.7032C6.79297 5.11344 6.5625 5.66984 6.5625 6.25V17.5C6.5625 17.7486 6.66127 17.9871 6.83709 18.1629C7.0129 18.3387 7.25136 18.4375 7.5 18.4375ZM24.6875 7.2625L30.2375 12.8125H24.6875V7.2625Z" fill="#BEBEBE"/>
</svg>
