<svg width="36" height="34" viewBox="0 0 36 34" fill="none" xmlns="http://www.w3.org/2000/svg">
<path d="M21.332 6H14.6654C12.4054 6 10.552 6 9.01537 6.09C6.2737 6.25167 4.53536 6.70167 3.28536 7.95333C1.33203 9.905 1.33203 13.0483 1.33203 19.3333C1.33203 25.6183 1.33203 28.7617 3.28536 30.7133C5.23703 32.6667 8.38037 32.6667 14.6654 32.6667H21.332C27.617 32.6667 30.7604 32.6667 32.712 30.7133C34.6654 28.7617 34.6654 25.6183 34.6654 19.3333C34.6654 13.0483 34.6654 9.905 32.712 7.95333C31.462 6.70333 29.7237 6.25333 26.9837 6.09C25.4454 6 23.592 6 21.332 6Z" stroke="#BEBEBE" stroke-width="2"/>
<path d="M9.01562 6.09C10.3873 6.05667 11.599 5.09 12.0656 3.8L12.124 3.62833L12.1656 3.5C12.2356 3.28833 12.2723 3.18333 12.309 3.09C12.5444 2.50469 12.9411 1.99821 13.453 1.62942C13.9649 1.26063 14.5709 1.04468 15.2006 1.00667C15.299 1 15.4123 1 15.6323 1H20.3623C20.584 1 20.6956 1 20.7956 1.00667C21.4254 1.04468 22.0314 1.26063 22.5433 1.62942C23.0551 1.99821 23.4519 2.50469 23.6873 3.09C23.7256 3.18333 23.7606 3.29 23.8306 3.5L23.874 3.62833C23.904 3.71667 23.9173 3.76167 23.9323 3.8C24.399 5.09167 25.6106 6.05667 26.9823 6.09" stroke="#BEBEBE" stroke-width="2"/>
<path d="M34.1012 10.5333C29.0845 13.7933 26.5762 15.4233 23.9329 16.245C20.0679 17.4458 15.9295 17.4458 12.0645 16.245C9.41953 15.4233 6.9112 13.795 1.89453 10.5333M11.3312 14.3333V17.6667M24.6645 14.3333V17.6667" stroke="#BEBEBE" stroke-width="2" stroke-linecap="round"/>
</svg>
