<svg width="26" height="22" viewBox="0 0 26 22" fill="none" xmlns="http://www.w3.org/2000/svg">
<path d="M15.6919 21.2828L25.2667 11.5719C25.4161 11.4201 25.5 11.2145 25.5 11C25.5 10.7856 25.4161 10.5799 25.2667 10.4281L15.6919 0.717193C15.5407 0.574248 15.3406 0.496428 15.1339 0.500127C14.9272 0.503826 14.73 0.588755 14.5838 0.737023C14.4376 0.885291 14.3539 1.08532 14.3502 1.29497C14.3466 1.50462 14.4233 1.70752 14.5642 1.86093L22.7759 10.1908L1.29789 10.1908C1.08628 10.1908 0.883332 10.276 0.733697 10.4278C0.584063 10.5795 0.5 10.7854 0.5 11C0.5 11.2146 0.584063 11.4205 0.733697 11.5722C0.883332 11.724 1.08628 11.8092 1.29789 11.8092L22.7759 11.8092L14.5642 20.1391C14.4233 20.2925 14.3466 20.4954 14.3502 20.705C14.3539 20.9147 14.4376 21.1147 14.5838 21.263C14.73 21.4112 14.9272 21.4962 15.1339 21.4999C15.3406 21.5036 15.5407 21.4258 15.6919 21.2828Z" fill="#171717"/>
</svg>
