<svg width="21" height="26" viewBox="0 0 21 26" fill="none" xmlns="http://www.w3.org/2000/svg">
<path d="M20.7828 10.3081L11.0719 0.733345C10.9201 0.583925 10.7145 0.5 10.5 0.5C10.2855 0.5 10.0799 0.583925 9.92813 0.733345L0.217192 10.3081C0.0742472 10.4593 -0.00357295 10.6594 0.000126078 10.8661C0.0038251 11.0728 0.0887546 11.27 0.237022 11.4162C0.38529 11.5624 0.58532 11.6461 0.794969 11.6498C1.00462 11.6534 1.20752 11.5767 1.36093 11.4358L9.69075 3.22411L9.69075 24.7021C9.69075 24.9137 9.77602 25.1167 9.92778 25.2663C10.0795 25.4159 10.2854 25.5 10.5 25.5C10.7146 25.5 10.9205 25.4159 11.0722 25.2663C11.224 25.1167 11.3092 24.9137 11.3092 24.7021L11.3092 3.22411L19.6391 11.4358C19.7925 11.5767 19.9954 11.6534 20.205 11.6498C20.4147 11.6461 20.6147 11.5624 20.763 11.4162C20.9112 11.27 20.9962 11.0728 20.9999 10.8661C21.0036 10.6594 20.9258 10.4593 20.7828 10.3081Z" fill="#171717"/>
</svg>
