<svg width="26" height="26" viewBox="0 0 26 26" fill="none" xmlns="http://www.w3.org/2000/svg">
<path d="M25.2414 10.3081L13.6808 0.733345C13.5002 0.583926 13.2553 0.499999 13 0.499999C12.7447 0.499999 12.4998 0.583926 12.3192 0.733345L0.758562 10.3081C0.58839 10.4593 0.495746 10.6594 0.50015 10.8661C0.504554 11.0728 0.60566 11.27 0.782169 11.4162C0.958679 11.5624 1.19681 11.6461 1.44639 11.6498C1.69597 11.6534 1.93752 11.5767 2.12015 11.4358L12.0366 3.22411L12.0366 24.7021C12.0366 24.9137 12.1381 25.1167 12.3188 25.2663C12.4995 25.4159 12.7445 25.5 13 25.5C13.2555 25.5 13.5005 25.4159 13.6812 25.2663C13.8619 25.1167 13.9634 24.9137 13.9634 24.7021L13.9634 3.22411L23.8799 11.4358C24.0625 11.5767 24.304 11.6534 24.5536 11.6498C24.8032 11.6461 25.0413 11.5624 25.2178 11.4162C25.3943 11.27 25.4954 11.0728 25.4999 10.8661C25.5043 10.6594 25.4116 10.4593 25.2414 10.3081Z" fill="#171717"/>
</svg>
