<svg width="26" height="22" viewBox="0 0 26 22" fill="none" xmlns="http://www.w3.org/2000/svg">
<path d="M10.3081 21.2828L0.733346 11.5719C0.583926 11.4201 0.5 11.2145 0.5 11C0.5 10.7856 0.583926 10.5799 0.733345 10.4281L10.3081 0.717193C10.4593 0.574248 10.6594 0.496428 10.8661 0.500127C11.0728 0.503826 11.27 0.588755 11.4162 0.737023C11.5624 0.885291 11.6461 1.08532 11.6498 1.29497C11.6534 1.50462 11.5767 1.70752 11.4358 1.86093L3.22411 10.1908L24.7021 10.1908C24.9137 10.1908 25.1167 10.276 25.2663 10.4278C25.4159 10.5795 25.5 10.7854 25.5 11C25.5 11.2146 25.4159 11.4205 25.2663 11.5722C25.1167 11.724 24.9137 11.8092 24.7021 11.8092L3.22411 11.8092L11.4358 20.1391C11.5767 20.2925 11.6534 20.4954 11.6498 20.705C11.6461 20.9147 11.5624 21.1147 11.4162 21.263C11.27 21.4112 11.0728 21.4962 10.8661 21.4999C10.6594 21.5036 10.4593 21.4258 10.3081 21.2828Z" fill="#171717"/>
</svg>
