<svg width="30" height="24" viewBox="0 0 30 24" fill="none" xmlns="http://www.w3.org/2000/svg">
<path d="M1.71807 8.53171H0.5V6.19684H3.37422M1.71807 8.53171L2.55912 16.7481L2.71481 17.2505M1.71807 8.53171H27.9646M5.43029 20.6789H3.77719L3.37422 19.3785M5.43029 20.6789C5.43029 18.6692 7.63441 18.4623 7.86643 18.4623C9.84172 18.4623 10.3219 19.9401 10.3316 20.6789M5.43029 20.6789C5.27668 21.3701 5.54887 22.7523 7.86643 22.7523C10.184 22.7523 10.4755 21.3701 10.3316 20.6789M10.3316 20.6789H19.2351M19.2351 20.6789C19.2738 19.9598 19.7803 18.5155 21.4972 18.4919C23.6433 18.4623 24.2524 19.6445 24.2524 20.6789M19.2351 20.6789C19.2249 21.4526 19.663 23 21.4972 23C23.3314 23 24.0982 21.4526 24.2524 20.6789M24.2524 20.6789H25.7025L26.163 19.3785M27.9646 8.53171H28.9216V6.19684H26.6595M27.9646 8.53171L27.0945 16.7481L26.9166 17.2505M26.9166 17.2505H28.9216V19.3785H26.163M26.9166 17.2505L26.163 19.3785M2.71481 17.2505H0.5V19.3785H3.37422M2.71481 17.2505L3.37422 19.3785M3.37422 6.19684C4.40759 4.96537 6.70636 2.69158 7.63441 3.4482C7.91592 3.6777 8.17963 3.96557 8.41746 4.27206M3.37422 6.19684H9.54852M9.54852 6.19684C9.37342 5.77817 8.96371 4.97601 8.41746 4.27206M9.54852 6.19684H11.1436M8.41746 4.27206C8.77515 3.45559 9.77474 2.0059 10.9116 2.73887L11.4046 3.11122M12.9417 4.27206L11.1436 6.19684M12.9417 4.27206C13.4154 3.88907 14.4498 3.18811 14.7978 3.4482C15.1458 3.70828 16.9923 5.389 17.872 6.19684M12.9417 4.27206L11.4046 3.11122M11.1436 6.19684H17.872M17.872 6.19684H19.2351M19.2351 6.19684H26.6595M19.2351 6.19684C19.7129 5.67715 20.4162 4.95893 21.1202 4.32558M26.6595 6.19684C25.8571 5.28063 24.0958 3.34771 23.4693 2.94576C23.1031 2.71076 22.111 3.43411 21.1202 4.32558M11.4046 3.11122C12.3424 2.27777 14.4846 0.740928 15.5519 1.2611C16.8859 1.91132 16.7409 2.73887 18.162 2.73887C19.5831 2.73887 20.3081 1.95188 21.1202 4.32558" stroke="#171717"/>
</svg>
