<svg width="24" height="25" viewBox="0 0 24 25" fill="none" xmlns="http://www.w3.org/2000/svg">
<path d="M23.663 22.4767L19.2137 18.06C20.9408 15.9049 21.7771 13.1695 21.5508 10.4163C21.3245 7.66303 20.0528 5.10118 17.997 3.25751C15.9412 1.41384 13.2578 0.428481 10.4983 0.504046C7.73893 0.579611 5.11331 1.71035 3.16137 3.66377C1.20944 5.61719 0.0795504 8.24481 0.00404275 11.0063C-0.0714649 13.7678 0.913145 16.4534 2.75542 18.5107C4.59769 20.568 7.15759 21.8407 9.90875 22.0672C12.6599 22.2937 15.3932 21.4567 17.5466 19.7283L21.96 24.145C22.0715 24.2575 22.2042 24.3468 22.3503 24.4077C22.4964 24.4686 22.6532 24.5 22.8115 24.5C22.9698 24.5 23.1266 24.4686 23.2727 24.4077C23.4189 24.3468 23.5515 24.2575 23.663 24.145C23.8792 23.9212 24 23.6221 24 23.3108C24 22.9996 23.8792 22.7005 23.663 22.4767ZM10.8186 19.7283C9.15827 19.7283 7.53518 19.2355 6.15463 18.3124C4.77408 17.3892 3.69807 16.0771 3.06267 14.5419C2.42727 13.0068 2.26102 11.3175 2.58495 9.68784C2.90887 8.05813 3.70842 6.56115 4.88248 5.38619C6.05654 4.21124 7.55239 3.41108 9.18086 3.08691C10.8093 2.76274 12.4973 2.92912 14.0313 3.565C15.5653 4.20088 16.8764 5.27771 17.7988 6.65931C18.7213 8.04091 19.2137 9.66523 19.2137 11.3269C19.2137 13.5551 18.3292 15.692 16.7548 17.2675C15.1804 18.8431 13.0451 19.7283 10.8186 19.7283Z" fill="#171717"/>
</svg>
