<svg width="40" height="40" viewBox="0 0 40 40" fill="none" xmlns="http://www.w3.org/2000/svg">
<rect width="40" height="40" rx="20" fill="#171717"/>
<path d="M10.4 17.4025H9.5V15.6922H11.6237M10.4 17.4025L11.0214 23.4207L11.1365 23.7887M10.4 17.4025H29.7929M13.1429 26.2999H11.9214L11.6237 25.3474M13.1429 26.2999C13.1429 24.8278 14.7714 24.6763 14.9429 24.6763C16.4023 24.6763 16.7571 25.7587 16.7643 26.2999M13.1429 26.2999C13.0294 26.8061 13.2305 27.8186 14.9429 27.8186C16.6552 27.8186 16.8706 26.8061 16.7643 26.2999M16.7643 26.2999H23.3429M23.3429 26.2999C23.3714 25.7731 23.7457 24.7152 25.0143 24.6979C26.6 24.6763 27.05 25.5422 27.05 26.2999M23.3429 26.2999C23.3353 26.8666 23.659 28 25.0143 28C26.3695 28 26.9361 26.8666 27.05 26.2999M27.05 26.2999H28.1214L28.4617 25.3474M29.7929 17.4025H30.5V15.6922H28.8286M29.7929 17.4025L29.15 23.4207L29.0185 23.7887M29.0185 23.7887H30.5V25.3474H28.4617M29.0185 23.7887L28.4617 25.3474M11.1365 23.7887H9.5V25.3474H11.6237M11.1365 23.7887L11.6237 25.3474M11.6237 15.6922C12.3872 14.7902 14.0857 13.1248 14.7714 13.679C14.9794 13.8471 15.1743 14.0579 15.35 14.2824M11.6237 15.6922H16.1857M16.1857 15.6922C16.0563 15.3856 15.7536 14.798 15.35 14.2824M16.1857 15.6922H17.3643M15.35 14.2824C15.6143 13.6844 16.3529 12.6225 17.1929 13.1594L17.5571 13.4321M18.6929 14.2824L17.3643 15.6922M18.6929 14.2824C19.0429 14.0019 19.8071 13.4885 20.0643 13.679C20.3214 13.8695 21.6857 15.1005 22.3357 15.6922M18.6929 14.2824L17.5571 13.4321M17.3643 15.6922H22.3357M22.3357 15.6922H23.3429M23.3429 15.6922H28.8286M23.3429 15.6922C23.6959 15.3116 24.2156 14.7855 24.7357 14.3216M28.8286 15.6922C28.2357 15.0211 26.9343 13.6053 26.4714 13.3109C26.2008 13.1388 25.4678 13.6686 24.7357 14.3216M17.5571 13.4321C18.25 12.8217 19.8329 11.696 20.6214 12.077C21.6071 12.5532 21.5 13.1594 22.55 13.1594C23.6 13.1594 24.1357 12.5829 24.7357 14.3216" stroke="white"/>
</svg>
